<svg xmlns="http://www.w3.org/2000/svg" xmlns:xlink="http://www.w3.org/1999/xlink" preserveAspectRatio="xMidYMid" width="15.963" height="15.963" viewBox="0 0 510 510">
  <defs>
    <style>
      .cls-1 {
        fill: #fff;
        fill-rule: evenodd;
      }
    </style>
  </defs>
  <path d="M150.450,206.550 L114.750,242.250 L229.500,357.000 L484.500,102.000 L448.800,66.300 L229.500,285.600 L150.450,206.550 ZM459.000,255.000 C459.000,367.200 367.200,459.000 255.000,459.000 C142.800,459.000 51.000,367.200 51.000,255.000 C51.000,142.800 142.800,51.000 255.000,51.000 C275.400,51.000 293.250,53.550 311.100,58.650 L351.900,17.850 C321.300,7.650 288.150,-0.000 255.000,-0.000 C114.750,-0.000 -0.000,114.750 -0.000,255.000 C-0.000,395.250 114.750,510.000 255.000,510.000 C395.250,510.000 510.000,395.250 510.000,255.000 L459.000,255.000 Z" class="cls-1"/>
</svg>
